<svg xmlns="http://www.w3.org/2000/svg" viewBox="0 0 100 100" preserveAspectRatio="xMidYMid" width="200" height="200" style="shape-rendering: auto; display: block; background: transparent;" xmlns:xlink="http://www.w3.org/1999/xlink"><g><g transform="rotate(0 50 50)">
  <rect fill="#f8b26a" height="12" width="6" ry="3.24" rx="3" y="24" x="47">
    <animate repeatCount="indefinite" begin="-1.9927536231884055s" dur="2.1739130434782608s" keyTimes="0;1" values="1;0" attributeName="opacity"></animate>
  </rect>
</g><g transform="rotate(30 50 50)">
  <rect fill="#f8b26a" height="12" width="6" ry="3.24" rx="3" y="24" x="47">
    <animate repeatCount="indefinite" begin="-1.8115942028985506s" dur="2.1739130434782608s" keyTimes="0;1" values="1;0" attributeName="opacity"></animate>
  </rect>
</g><g transform="rotate(60 50 50)">
  <rect fill="#f8b26a" height="12" width="6" ry="3.24" rx="3" y="24" x="47">
    <animate repeatCount="indefinite" begin="-1.6304347826086956s" dur="2.1739130434782608s" keyTimes="0;1" values="1;0" attributeName="opacity"></animate>
  </rect>
</g><g transform="rotate(90 50 50)">
  <rect fill="#f8b26a" height="12" width="6" ry="3.24" rx="3" y="24" x="47">
    <animate repeatCount="indefinite" begin="-1.4492753623188404s" dur="2.1739130434782608s" keyTimes="0;1" values="1;0" attributeName="opacity"></animate>
  </rect>
</g><g transform="rotate(120 50 50)">
  <rect fill="#f8b26a" height="12" width="6" ry="3.24" rx="3" y="24" x="47">
    <animate repeatCount="indefinite" begin="-1.2681159420289854s" dur="2.1739130434782608s" keyTimes="0;1" values="1;0" attributeName="opacity"></animate>
  </rect>
</g><g transform="rotate(150 50 50)">
  <rect fill="#f8b26a" height="12" width="6" ry="3.24" rx="3" y="24" x="47">
    <animate repeatCount="indefinite" begin="-1.0869565217391304s" dur="2.1739130434782608s" keyTimes="0;1" values="1;0" attributeName="opacity"></animate>
  </rect>
</g><g transform="rotate(180 50 50)">
  <rect fill="#f8b26a" height="12" width="6" ry="3.24" rx="3" y="24" x="47">
    <animate repeatCount="indefinite" begin="-0.9057971014492753s" dur="2.1739130434782608s" keyTimes="0;1" values="1;0" attributeName="opacity"></animate>
  </rect>
</g><g transform="rotate(210 50 50)">
  <rect fill="#f8b26a" height="12" width="6" ry="3.24" rx="3" y="24" x="47">
    <animate repeatCount="indefinite" begin="-0.7246376811594202s" dur="2.1739130434782608s" keyTimes="0;1" values="1;0" attributeName="opacity"></animate>
  </rect>
</g><g transform="rotate(240 50 50)">
  <rect fill="#f8b26a" height="12" width="6" ry="3.24" rx="3" y="24" x="47">
    <animate repeatCount="indefinite" begin="-0.5434782608695652s" dur="2.1739130434782608s" keyTimes="0;1" values="1;0" attributeName="opacity"></animate>
  </rect>
</g><g transform="rotate(270 50 50)">
  <rect fill="#f8b26a" height="12" width="6" ry="3.24" rx="3" y="24" x="47">
    <animate repeatCount="indefinite" begin="-0.3623188405797101s" dur="2.1739130434782608s" keyTimes="0;1" values="1;0" attributeName="opacity"></animate>
  </rect>
</g><g transform="rotate(300 50 50)">
  <rect fill="#f8b26a" height="12" width="6" ry="3.24" rx="3" y="24" x="47">
    <animate repeatCount="indefinite" begin="-0.18115942028985504s" dur="2.1739130434782608s" keyTimes="0;1" values="1;0" attributeName="opacity"></animate>
  </rect>
</g><g transform="rotate(330 50 50)">
  <rect fill="#f8b26a" height="12" width="6" ry="3.24" rx="3" y="24" x="47">
    <animate repeatCount="indefinite" begin="0s" dur="2.1739130434782608s" keyTimes="0;1" values="1;0" attributeName="opacity"></animate>
  </rect>
</g><g></g></g><!-- [ldio] generated by https://loading.io --></svg>